<svg width="480" height="496" viewBox="0 0 480 496" fill="none" xmlns="http://www.w3.org/2000/svg">
<path d="M43.2844 414.184C48.4044 414.184 52.8844 415.24 56.7244 417.352C60.5644 419.464 63.5084 422.504 65.5564 426.472C67.6684 430.376 68.7244 435.016 68.7244 440.392H59.3164C59.3164 434.824 57.9404 430.504 55.1884 427.432C52.4364 424.296 48.4684 422.728 43.2844 422.728C37.5244 422.728 33.1404 424.52 30.1324 428.104C27.1244 431.624 25.6204 436.84 25.6204 443.752V452.392C25.6204 459.24 27.0924 464.456 30.0364 468.04C32.9804 471.624 37.3324 473.416 43.0924 473.416C48.4684 473.416 52.5644 471.88 55.3804 468.808C58.2604 465.736 59.7004 461.448 59.7004 455.944H68.7244C68.7244 461.256 67.6684 465.864 65.5564 469.768C63.5084 473.672 60.5644 476.68 56.7244 478.792C52.8844 480.904 48.4044 481.96 43.2844 481.96C34.7724 481.96 28.1164 479.368 23.3164 474.184C18.5804 468.936 16.2124 461.672 16.2124 452.392V443.752C16.2124 434.536 18.5804 427.304 23.3164 422.056C28.1164 416.808 34.7724 414.184 43.2844 414.184ZM101.135 430.984C107.983 430.984 113.455 433.096 117.551 437.32C121.647 441.544 123.695 447.336 123.695 454.696V458.248C123.695 465.608 121.679 471.4 117.647 475.624C113.615 479.848 108.111 481.96 101.135 481.96C94.1593 481.96 88.6553 479.848 84.6233 475.624C80.5913 471.4 78.5753 465.608 78.5753 458.248V454.696C78.5753 447.336 80.6233 441.544 84.7193 437.32C88.8153 433.096 94.2873 430.984 101.135 430.984ZM101.135 438.184C96.8473 438.184 93.5193 439.656 91.1513 442.6C88.7833 445.544 87.5993 449.864 87.5993 455.56V457.384C87.5993 462.952 88.7513 467.24 91.0553 470.248C93.4233 473.256 96.7833 474.76 101.135 474.76C105.359 474.76 108.655 473.288 111.023 470.344C113.455 467.336 114.671 463.016 114.671 457.384V455.56C114.671 449.992 113.487 445.704 111.119 442.696C108.815 439.688 105.487 438.184 101.135 438.184ZM160.535 430.984C165.911 430.984 170.135 432.424 173.207 435.304C176.279 438.184 177.815 442.408 177.815 447.976V481H168.791V449.608C168.791 441.992 165.335 438.184 158.423 438.184C156.119 438.184 153.975 438.792 151.991 440.008C150.007 441.224 148.407 442.888 147.191 445C145.975 447.048 145.367 449.32 145.367 451.816V481H136.343V431.944H142.871L144.119 439.144C148.215 433.704 153.687 430.984 160.535 430.984ZM232.948 481H226.228C225.78 478.952 225.364 476.712 224.98 474.28C221.332 479.4 216.276 481.96 209.812 481.96C203.668 481.96 198.804 479.688 195.22 475.144C191.7 470.6 189.94 464.36 189.94 456.424V455.368C189.94 447.88 191.668 441.96 195.124 437.608C198.644 433.192 203.54 430.984 209.812 430.984C215.892 430.984 220.596 433.384 223.924 438.184V411.88H232.948V481ZM211.444 438.184C207.156 438.184 203.988 439.688 201.94 442.696C199.956 445.64 198.964 450.248 198.964 456.52C198.964 462.792 199.988 467.4 202.036 470.344C204.084 473.288 207.22 474.76 211.444 474.76C219.828 474.76 224.02 468.68 224.02 456.52C224.02 450.248 222.964 445.64 220.852 442.696C218.74 439.688 215.604 438.184 211.444 438.184ZM293.575 430.312H265.831V439.912H292.519V454.6H265.831V465.256H293.575L295.495 481H246.055V415.144H295.495L293.575 430.312ZM335.541 481L333.813 475.336C330.293 479.752 326.165 481.96 321.429 481.96C317.461 481.96 313.877 481.032 310.677 479.176C307.541 477.32 305.045 474.536 303.189 470.824C301.397 467.048 300.501 462.44 300.501 457V455.944C300.501 450.504 301.301 445.928 302.901 442.216C304.565 438.44 306.773 435.624 309.525 433.768C312.341 431.912 315.509 430.984 319.029 430.984C325.045 430.984 329.269 433 331.701 437.032V411.88H350.708V481H335.541ZM325.749 442.984C324.085 442.984 322.677 443.656 321.525 445C320.373 446.28 319.797 447.848 319.797 449.704V463.624C319.797 465.48 320.373 467.08 321.525 468.424C322.677 469.704 324.085 470.344 325.749 470.344C327.413 470.344 328.821 469.704 329.973 468.424C331.125 467.08 331.701 465.48 331.701 463.624V449.704C331.701 447.848 331.125 446.28 329.973 445C328.821 443.656 327.413 442.984 325.749 442.984ZM407.743 466.792C407.743 468.008 408.031 468.904 408.607 469.48C409.183 470.056 409.887 470.344 410.719 470.344C411.935 470.344 413.055 470.056 414.079 469.48V479.752C412.031 481.224 408.799 481.96 404.383 481.96C400.287 481.96 397.151 481.32 394.975 480.04C392.799 478.696 391.231 476.744 390.271 474.184C389.183 475.848 387.391 477.576 384.895 479.368C382.399 481.096 379.647 481.96 376.639 481.96H373.951C371.327 481.96 368.895 481.32 366.655 480.04C364.479 478.76 362.751 477.032 361.471 474.856C360.191 472.616 359.551 470.184 359.551 467.56V431.944H378.559V462.664C378.559 464.264 379.039 465.64 379.999 466.792C381.023 467.88 382.239 468.424 383.647 468.424C385.055 468.424 386.239 467.88 387.199 466.792C388.223 465.64 388.735 464.264 388.735 462.664V431.944H407.743V466.792ZM444.459 430.984C449.195 430.984 453.291 431.88 456.747 433.672C460.203 435.464 462.827 437.96 464.619 441.16C466.475 444.296 467.403 447.848 467.403 451.816H451.179V449.32C451.179 447.464 450.539 445.896 449.259 444.616C447.979 443.272 446.411 442.6 444.555 442.6C442.699 442.6 441.131 443.272 439.851 444.616C438.571 445.896 437.931 447.464 437.931 449.32V463.624C437.931 465.48 438.571 467.08 439.851 468.424C441.195 469.704 442.795 470.344 444.651 470.344H445.803C447.659 470.344 449.195 469.704 450.411 468.424C451.627 467.144 452.235 465.544 452.235 463.624V461.128H467.403C467.403 467.72 465.355 472.84 461.259 476.488C457.163 480.136 451.595 481.96 444.555 481.96H441.771C437.483 481.96 433.483 480.904 429.771 478.792C426.059 476.68 423.083 473.832 420.843 470.248C418.667 466.6 417.579 462.664 417.579 458.44V454.504C417.579 450.28 418.667 446.376 420.843 442.792C423.019 439.144 425.931 436.264 429.579 434.152C433.291 432.04 437.291 430.984 441.579 430.984H444.459Z" fill="white"/>
<g clip-path="url(#clip0_114_10)">
<path d="M459.714 225.442H466.796L438.484 197.838V69.9288H467L432.338 47.1456V18.8582H438.476V6.90266H395.547V18.8582H401.685V26.994L360.62 0L254.241 69.9288H282.757V197.838L254.445 225.442H261.527V321.206C260.305 320.879 259.047 320.699 257.782 320.673C255.978 320.673 254.271 321.026 252.655 321.582C251.493 313.905 238.431 311.71 234.535 317.379C234.724 316.545 234.845 315.687 234.845 314.8C234.831 311.67 233.57 308.674 231.339 306.471C229.107 304.267 226.089 303.036 222.946 303.048C221.716 303.048 220.576 303.296 219.473 303.649V225.442H226.555L198.243 197.838V69.9288H226.759L192.104 47.1531V18.8582H198.243V6.90266H155.313V18.8582H161.452V27.0016L120.379 0L14 69.9288H42.5163V197.838L14.2038 225.442H21.2857V363.404H14V391H467V363.404H459.714V225.442ZM297.865 69.9288H423.384V197.838H297.865V69.9288ZM444.614 240.337V363.404H346.464V273.73H353.546V259.925H289.839V273.73H296.921V363.404H276.627V240.337H444.614ZM331.077 318.56C331.077 315.988 333.206 313.913 335.856 313.913C338.499 313.913 340.628 315.988 340.628 318.56C340.628 321.139 338.499 323.222 335.856 323.222C335.235 323.23 334.618 323.115 334.041 322.885C333.464 322.655 332.938 322.313 332.494 321.88C332.05 321.447 331.696 320.93 331.453 320.361C331.21 319.791 331.082 319.179 331.077 318.56ZM90.8363 318.56C90.8363 315.988 92.9654 313.913 95.6155 313.913C98.258 313.913 100.387 315.988 100.387 318.56C100.387 321.139 98.258 323.222 95.6155 323.222C94.9939 323.23 94.3769 323.115 93.7999 322.885C93.2228 322.655 92.6972 322.313 92.2531 321.88C91.809 321.447 91.4552 320.93 91.2121 320.361C90.969 319.791 90.8413 319.179 90.8363 318.56ZM261.527 354.111C261.323 354.066 261.134 353.983 260.915 353.983C258.718 353.983 256.951 356.148 256.951 353.983C256.951 351.817 258.718 350.073 260.915 350.073C261.134 350.073 261.323 350.156 261.527 350.193V354.111ZM219.473 354.043V347.937C223.611 348.201 226.91 351.524 226.91 355.66C226.91 359.825 223.626 354.479 219.473 354.043ZM256.649 327.538C258.522 327.538 260.168 328.267 261.527 329.335V335.17C260.175 334.094 258.499 332.899 256.649 332.899C252.248 332.899 248.669 339.749 248.669 335.403C248.669 331.049 252.248 327.538 256.649 327.538ZM243.86 344.749C246.834 344.749 249.235 347.11 249.235 350.05C249.235 352.983 246.834 348.622 243.86 348.622C240.885 348.622 238.484 352.983 238.484 350.05C238.484 347.11 240.893 344.749 243.86 344.749ZM224.011 317.327C224.715 317.324 225.412 317.459 226.064 317.724C226.715 317.99 227.308 318.381 227.808 318.874C228.308 319.368 228.705 319.955 228.977 320.601C229.249 321.248 229.391 321.942 229.394 322.643C229.394 325.575 226.985 321.206 224.011 321.206C222.093 321.206 220.417 323.011 219.466 323.507V319.973C219.928 319.178 220.59 318.516 221.387 318.052C222.184 317.588 223.088 317.338 224.011 317.327ZM57.6163 69.9288H183.135V197.838H57.6163V69.9288ZM36.3857 240.337H204.373V363.404H106.223V273.73H113.305V259.925H49.5982V273.73H56.6801V363.404H36.3857V240.337Z" fill="white"/>
<path d="M438.008 259.759H365.347V331.493H438.008V259.759ZM398.023 324.327H372.602V299.205H398.023V324.327ZM398.023 292.024H372.602V266.91H398.023V292.024ZM430.73 324.327H405.301V299.205H430.73V324.327ZM430.73 292.024H405.301V266.91H430.73V292.024Z" fill="white"/>
<path d="M324.29 169.002H396.951V97.2688H324.29V169.002ZM364.244 104.435H389.673V129.541H364.244V104.435ZM364.244 136.73H389.673V161.844H364.244V136.73ZM331.553 104.435H356.974V129.541H331.553V104.435ZM331.553 136.73H356.974V161.844H331.553V136.73Z" fill="white"/>
<path d="M84.0489 169.002H156.71V97.2688H84.0489V169.002ZM123.996 104.435H149.424V129.541H123.996V104.435ZM123.996 136.73H149.424V161.844H123.996V136.73ZM91.3044 104.435H116.725V129.541H91.3044V104.435ZM91.3044 136.73H116.725V161.844H91.3044V136.73Z" fill="white"/>
<path d="M197.767 259.759H125.106V331.493H197.767V259.759ZM157.79 324.327H132.369V299.205H157.79V324.327ZM157.79 292.024H132.369V266.91H157.79V292.024ZM190.489 324.327H165.06V299.205H190.489V324.327ZM190.489 292.024H165.06V266.91H190.489V292.024Z" fill="white"/>
</g>
<defs>
<clipPath id="clip0_114_10">
<rect width="453" height="391" fill="white" transform="translate(14)"/>
</clipPath>
</defs>
</svg>
