<svg width="969" height="226" viewBox="0 0 969 226" fill="none" xmlns="http://www.w3.org/2000/svg">
<path d="M311.266 123.096C311.266 129.784 313.07 134.976 316.678 138.672C320.286 142.28 324.862 144.084 330.406 144.084C336.654 144.084 341.274 142.412 344.266 139.068C347.258 135.636 348.754 130.4 348.754 123.36H367.366C367.366 131.104 365.782 137.792 362.614 143.424C359.534 148.968 355.266 153.192 349.81 156.096C344.354 158.912 338.194 160.32 331.33 160.32H329.482C321.914 160.32 315.138 158.78 309.154 155.7C303.17 152.62 298.462 148.088 295.03 142.104C291.598 136.032 289.882 128.728 289.882 120.192V107.256C289.882 98.984 291.598 91.812 295.03 85.74C298.462 79.668 303.126 75.048 309.022 71.88C315.006 68.712 321.65 67.128 328.954 67.128H330.802C337.842 67.128 344.09 68.536 349.546 71.352C355.09 74.08 359.446 78.26 362.614 83.892C365.782 89.436 367.366 96.256 367.366 104.352H347.962C347.962 97.488 346.422 92.296 343.342 88.776C340.35 85.168 335.994 83.364 330.274 83.364C324.73 83.364 320.154 85.212 316.546 88.908C313.026 92.516 311.266 97.664 311.266 104.352V123.096ZM447.106 127.188C447.106 133.964 445.654 139.86 442.75 144.876C439.934 149.892 436.018 153.72 431.002 156.36C425.986 159 420.354 160.32 414.106 160.32H411.994C405.746 160.32 400.114 159 395.098 156.36C390.082 153.72 386.122 149.892 383.218 144.876C380.402 139.86 378.994 133.964 378.994 127.188V123.36C378.994 116.584 380.402 110.688 383.218 105.672C386.122 100.656 390.082 96.828 395.098 94.188C400.114 91.548 405.746 90.228 411.994 90.228H414.106C420.354 90.228 425.986 91.548 431.002 94.188C436.018 96.828 439.934 100.656 442.75 105.672C445.654 110.688 447.106 116.584 447.106 123.36V127.188ZM427.57 119.928C427.57 114.56 426.206 110.468 423.478 107.652C420.838 104.836 417.362 103.428 413.05 103.428C408.738 103.428 405.218 104.836 402.49 107.652C399.85 110.468 398.53 114.56 398.53 119.928V130.62C398.53 135.988 399.85 140.08 402.49 142.896C405.218 145.712 408.738 147.12 413.05 147.12C417.362 147.12 420.838 145.712 423.478 142.896C426.206 140.08 427.57 135.988 427.57 130.62V119.928ZM477.603 101.448C483.147 93.968 490.319 90.228 499.119 90.228C505.983 90.228 511.615 92.076 516.015 95.772C520.503 99.468 522.747 104.836 522.747 111.876V159H503.475V116.1C503.475 112.668 502.463 109.852 500.439 107.652C498.503 105.364 495.995 104.22 492.915 104.22C489.483 104.22 486.535 105.54 484.071 108.18C481.607 110.732 480.375 113.856 480.375 117.552V159H461.103V91.548H475.491L477.603 101.448ZM583.487 150.552C578.559 157.064 572.223 160.32 564.479 160.32C559.199 160.32 554.447 159.044 550.223 156.492C545.999 153.94 542.655 150.068 540.191 144.876C537.727 139.684 536.495 133.26 536.495 125.604V124.152C536.495 116.848 537.639 110.644 539.927 105.54C542.215 100.436 545.295 96.608 549.167 94.056C553.127 91.504 557.571 90.228 562.499 90.228C566.723 90.228 570.419 91.108 573.587 92.868C576.843 94.628 579.439 96.784 581.375 99.336V63.96H600.647V159H585.467L583.487 150.552ZM556.031 131.148C556.031 136.252 557.219 140.212 559.595 143.028C561.971 145.756 565.007 147.12 568.703 147.12C572.399 147.12 575.435 145.756 577.811 143.028C580.187 140.212 581.375 136.252 581.375 131.148V120.192C581.375 115 580.187 111.04 577.811 108.312C575.435 105.584 572.399 104.22 568.703 104.22C565.007 104.22 561.971 105.584 559.595 108.312C557.219 111.04 556.031 115 556.031 120.192V131.148Z" fill="#0093EF"/>
<path d="M681.854 89.304H643.706V102.504H680.402V122.7H643.706V137.352H681.854L684.494 159H616.514V68.448H684.494L681.854 89.304ZM739.681 159L737.305 151.212C732.465 157.284 726.789 160.32 720.277 160.32C714.821 160.32 709.893 159.044 705.493 156.492C701.181 153.94 697.749 150.112 695.197 145.008C692.733 139.816 691.501 133.48 691.501 126V124.548C691.501 117.068 692.601 110.776 694.801 105.672C697.089 100.48 700.125 96.608 703.909 94.056C707.781 91.504 712.137 90.228 716.977 90.228C725.249 90.228 731.057 93 734.401 98.544V63.96H760.537V159H739.681ZM726.217 106.728C723.929 106.728 721.993 107.652 720.409 109.5C718.825 111.26 718.033 113.416 718.033 115.968V135.108C718.033 137.66 718.825 139.86 720.409 141.708C721.993 143.468 723.929 144.348 726.217 144.348C728.505 144.348 730.441 143.468 732.025 141.708C733.609 139.86 734.401 137.66 734.401 135.108V115.968C734.401 113.416 733.609 111.26 732.025 109.5C730.441 107.652 728.505 106.728 726.217 106.728ZM839.085 139.464C839.085 141.136 839.481 142.368 840.273 143.16C841.065 143.952 842.033 144.348 843.177 144.348C844.849 144.348 846.389 143.952 847.797 143.16V157.284C844.981 159.308 840.537 160.32 834.465 160.32C828.833 160.32 824.521 159.44 821.529 157.68C818.537 155.832 816.381 153.148 815.061 149.628C813.565 151.916 811.101 154.292 807.669 156.756C804.237 159.132 800.453 160.32 796.317 160.32H792.621C789.013 160.32 785.669 159.44 782.589 157.68C779.597 155.92 777.221 153.544 775.461 150.552C773.701 147.472 772.821 144.128 772.821 140.52V91.548H798.957V133.788C798.957 135.988 799.617 137.88 800.937 139.464C802.345 140.96 804.017 141.708 805.953 141.708C807.889 141.708 809.517 140.96 810.837 139.464C812.245 137.88 812.949 135.988 812.949 133.788V91.548H839.085V139.464ZM889.694 90.228C896.206 90.228 901.838 91.46 906.59 93.924C911.342 96.388 914.95 99.82 917.414 104.22C919.966 108.532 921.242 113.416 921.242 118.872H898.934V115.44C898.934 112.888 898.054 110.732 896.294 108.972C894.534 107.124 892.378 106.2 889.826 106.2C887.274 106.2 885.118 107.124 883.358 108.972C881.598 110.732 880.718 112.888 880.718 115.44V135.108C880.718 137.66 881.598 139.86 883.358 141.708C885.206 143.468 887.406 144.348 889.958 144.348H891.542C894.094 144.348 896.206 143.468 897.878 141.708C899.55 139.948 900.386 137.748 900.386 135.108V131.676H921.242C921.242 140.74 918.426 147.78 912.794 152.796C907.162 157.812 899.506 160.32 889.826 160.32H885.998C880.102 160.32 874.602 158.868 869.498 155.964C864.394 153.06 860.302 149.144 857.222 144.216C854.23 139.2 852.734 133.788 852.734 127.98V122.568C852.734 116.76 854.23 111.392 857.222 106.464C860.214 101.448 864.218 97.488 869.234 94.584C874.338 91.68 879.838 90.228 885.734 90.228H889.694Z" fill="#04446C"/>
<g clip-path="url(#clip0_132_2)">
<path d="M257.786 130.306H261.882L245.507 114.352V40.4192H262L241.953 27.2504V10.9002H245.503V3.98977H220.674V10.9002H224.224V15.6027L200.474 0L138.947 40.4192H155.44V114.352L139.065 130.306H143.161V185.659C142.454 185.469 141.727 185.366 140.995 185.35C139.952 185.35 138.965 185.555 138.03 185.876C137.358 181.439 129.804 180.17 127.55 183.447C127.66 182.964 127.729 182.469 127.729 181.956C127.721 180.147 126.992 178.415 125.701 177.142C124.411 175.868 122.665 175.156 120.848 175.163C120.136 175.163 119.476 175.306 118.839 175.511V130.306H122.935L106.56 114.352V40.4192H123.053L103.01 27.2547V10.9002H106.56V3.98977H81.7309V10.9002H85.281V15.607L61.5263 0L0 40.4192H16.4929V114.352L0.1179 130.306H4.21383V210.05H0V226H262V210.05H257.786V130.306ZM164.178 40.4192H236.774V114.352H164.178V40.4192ZM249.053 138.916V210.05H192.286V158.217H196.382V150.238H159.536V158.217H163.632V210.05H151.895V138.916H249.053ZM183.387 184.129C183.387 182.643 184.618 181.443 186.151 181.443C187.679 181.443 188.911 182.643 188.911 184.129C188.911 185.62 187.679 186.824 186.151 186.824C185.792 186.828 185.435 186.762 185.101 186.629C184.767 186.496 184.463 186.299 184.206 186.048C183.949 185.798 183.745 185.499 183.604 185.17C183.464 184.841 183.39 184.487 183.387 184.129ZM44.4396 184.129C44.4396 182.643 45.671 181.443 47.2037 181.443C48.732 181.443 49.9634 182.643 49.9634 184.129C49.9634 185.62 48.732 186.824 47.2037 186.824C46.8442 186.828 46.4873 186.762 46.1536 186.629C45.8198 186.496 45.5158 186.299 45.259 186.048C45.0021 185.798 44.7975 185.499 44.6569 185.17C44.5163 184.841 44.4424 184.487 44.4396 184.129ZM143.161 204.678C143.043 204.652 142.934 204.604 142.807 204.604C141.537 204.604 140.515 205.856 140.515 204.604C140.515 203.352 141.537 202.344 142.807 202.344C142.934 202.344 143.043 202.392 143.161 202.413V204.678ZM118.839 204.639V201.11C121.232 201.262 123.14 203.183 123.14 205.573C123.14 207.981 121.241 204.891 118.839 204.639ZM140.34 189.318C141.423 189.318 142.375 189.74 143.161 190.357V193.73C142.38 193.108 141.41 192.417 140.34 192.417C137.795 192.417 135.725 196.377 135.725 193.865C135.725 191.348 137.795 189.318 140.34 189.318ZM132.943 199.267C134.664 199.267 136.052 200.631 136.052 202.331C136.052 204.026 134.664 201.505 132.943 201.505C131.223 201.505 129.834 204.026 129.834 202.331C129.834 200.631 131.227 199.267 132.943 199.267ZM121.463 183.416C121.87 183.415 122.274 183.493 122.651 183.646C123.027 183.8 123.37 184.026 123.659 184.311C123.948 184.596 124.178 184.936 124.336 185.309C124.493 185.683 124.575 186.084 124.577 186.489C124.577 188.184 123.184 185.659 121.463 185.659C120.354 185.659 119.385 186.702 118.834 186.989V184.946C119.102 184.487 119.485 184.104 119.946 183.836C120.407 183.568 120.929 183.423 121.463 183.416ZM25.2262 40.4192H97.8221V114.352H25.2262V40.4192ZM12.9472 138.916H110.106V210.05H53.3388V158.217H57.4348V150.238H20.5888V158.217H24.6848V210.05H12.9472V138.916Z" fill="url(#paint0_linear_132_2)"/>
<path d="M245.232 150.142H203.207V191.605H245.232V150.142ZM222.106 187.463H207.404V172.942H222.106V187.463ZM222.106 168.792H207.404V154.275H222.106V168.792ZM241.022 187.463H226.316V172.942H241.022V187.463ZM241.022 168.792H226.316V154.275H241.022V168.792Z" fill="#0093EF"/>
<path d="M179.461 97.6841H221.486V56.2218H179.461V97.6841ZM202.57 60.3637H217.277V74.8755H202.57V60.3637ZM202.57 79.0304H217.277V93.5466H202.57V79.0304ZM183.662 60.3637H198.365V74.8755H183.662V60.3637ZM183.662 79.0304H198.365V93.5466H183.662V79.0304Z" fill="#0093EF"/>
<path d="M40.5139 97.6841H82.5387V56.2218H40.5139V97.6841ZM63.6179 60.3637H78.3249V74.8755H63.6179V60.3637ZM63.6179 79.0304H78.3249V93.5466H63.6179V79.0304ZM44.7103 60.3637H59.4128V74.8755H44.7103V60.3637ZM44.7103 79.0304H59.4128V93.5466H44.7103V79.0304Z" fill="#0093EF"/>
<path d="M106.285 150.142H64.2599V191.605H106.285V150.142ZM83.1632 187.463H68.4606V172.942H83.1632V187.463ZM83.1632 168.792H68.4606V154.275H83.1632V168.792ZM102.075 187.463H87.3683V172.942H102.075V187.463ZM102.075 168.792H87.3683V154.275H102.075V168.792Z" fill="#0093EF"/>
</g>
<defs>
<linearGradient id="paint0_linear_132_2" x1="131" y1="0" x2="204" y2="348" gradientUnits="userSpaceOnUse">
<stop stop-color="#0093EF"/>
<stop offset="1" stop-color="#04446C"/>
</linearGradient>
<clipPath id="clip0_132_2">
<rect width="262" height="226" fill="white"/>
</clipPath>
</defs>
</svg>
