<svg width="622" height="123" viewBox="0 0 622 123" fill="none" xmlns="http://www.w3.org/2000/svg">
<path d="M185.284 32.184C190.404 32.184 194.884 33.24 198.724 35.352C202.564 37.464 205.508 40.504 207.556 44.472C209.668 48.376 210.724 53.016 210.724 58.392H201.316C201.316 52.824 199.94 48.504 197.188 45.432C194.436 42.296 190.468 40.728 185.284 40.728C179.524 40.728 175.14 42.52 172.132 46.104C169.124 49.624 167.62 54.84 167.62 61.752V70.392C167.62 77.24 169.092 82.456 172.036 86.04C174.98 89.624 179.332 91.416 185.092 91.416C190.468 91.416 194.564 89.88 197.38 86.808C200.26 83.736 201.7 79.448 201.7 73.944H210.724C210.724 79.256 209.668 83.864 207.556 87.768C205.508 91.672 202.564 94.68 198.724 96.792C194.884 98.904 190.404 99.96 185.284 99.96C176.772 99.96 170.116 97.368 165.316 92.184C160.58 86.936 158.212 79.672 158.212 70.392V61.752C158.212 52.536 160.58 45.304 165.316 40.056C170.116 34.808 176.772 32.184 185.284 32.184ZM243.135 48.984C249.983 48.984 255.455 51.096 259.551 55.32C263.647 59.544 265.695 65.336 265.695 72.696V76.248C265.695 83.608 263.679 89.4 259.647 93.624C255.615 97.848 250.111 99.96 243.135 99.96C236.159 99.96 230.655 97.848 226.623 93.624C222.591 89.4 220.575 83.608 220.575 76.248V72.696C220.575 65.336 222.623 59.544 226.719 55.32C230.815 51.096 236.287 48.984 243.135 48.984ZM243.135 56.184C238.847 56.184 235.519 57.656 233.151 60.6C230.783 63.544 229.599 67.864 229.599 73.56V75.384C229.599 80.952 230.751 85.24 233.055 88.248C235.423 91.256 238.783 92.76 243.135 92.76C247.359 92.76 250.655 91.288 253.023 88.344C255.455 85.336 256.671 81.016 256.671 75.384V73.56C256.671 67.992 255.487 63.704 253.119 60.696C250.815 57.688 247.487 56.184 243.135 56.184ZM302.535 48.984C307.911 48.984 312.135 50.424 315.207 53.304C318.279 56.184 319.815 60.408 319.815 65.976V99H310.791V67.608C310.791 59.992 307.335 56.184 300.423 56.184C298.119 56.184 295.975 56.792 293.991 58.008C292.007 59.224 290.407 60.888 289.191 63C287.975 65.048 287.367 67.32 287.367 69.816V99H278.343V49.944H284.871L286.119 57.144C290.215 51.704 295.687 48.984 302.535 48.984ZM374.948 99H368.228C367.78 96.952 367.364 94.712 366.98 92.28C363.332 97.4 358.276 99.96 351.812 99.96C345.668 99.96 340.804 97.688 337.22 93.144C333.7 88.6 331.94 82.36 331.94 74.424V73.368C331.94 65.88 333.668 59.96 337.124 55.608C340.644 51.192 345.54 48.984 351.812 48.984C357.892 48.984 362.596 51.384 365.924 56.184V29.88H374.948V99ZM353.444 56.184C349.156 56.184 345.988 57.688 343.94 60.696C341.956 63.64 340.964 68.248 340.964 74.52C340.964 80.792 341.988 85.4 344.036 88.344C346.084 91.288 349.22 92.76 353.444 92.76C361.828 92.76 366.02 86.68 366.02 74.52C366.02 68.248 364.964 63.64 362.852 60.696C360.74 57.688 357.604 56.184 353.444 56.184ZM435.575 48.312H407.831V57.912H434.519V72.6H407.831V83.256H435.575L437.495 99H388.055V33.144H437.495L435.575 48.312ZM477.541 99L475.813 93.336C472.293 97.752 468.165 99.96 463.429 99.96C459.461 99.96 455.877 99.032 452.677 97.176C449.541 95.32 447.045 92.536 445.189 88.824C443.397 85.048 442.501 80.44 442.501 75V73.944C442.501 68.504 443.301 63.928 444.901 60.216C446.565 56.44 448.773 53.624 451.525 51.768C454.341 49.912 457.509 48.984 461.029 48.984C467.045 48.984 471.269 51 473.701 55.032V29.88H492.708V99H477.541ZM467.749 60.984C466.085 60.984 464.677 61.656 463.525 63C462.373 64.28 461.797 65.848 461.797 67.704V81.624C461.797 83.48 462.373 85.08 463.525 86.424C464.677 87.704 466.085 88.344 467.749 88.344C469.413 88.344 470.821 87.704 471.973 86.424C473.125 85.08 473.701 83.48 473.701 81.624V67.704C473.701 65.848 473.125 64.28 471.973 63C470.821 61.656 469.413 60.984 467.749 60.984ZM549.743 84.792C549.743 86.008 550.031 86.904 550.607 87.48C551.183 88.056 551.887 88.344 552.719 88.344C553.935 88.344 555.055 88.056 556.079 87.48V97.752C554.031 99.224 550.799 99.96 546.383 99.96C542.287 99.96 539.151 99.32 536.975 98.04C534.799 96.696 533.231 94.744 532.271 92.184C531.183 93.848 529.391 95.576 526.895 97.368C524.399 99.096 521.647 99.96 518.639 99.96H515.951C513.327 99.96 510.895 99.32 508.655 98.04C506.479 96.76 504.751 95.032 503.471 92.856C502.191 90.616 501.551 88.184 501.551 85.56V49.944H520.559V80.664C520.559 82.264 521.039 83.64 521.999 84.792C523.023 85.88 524.239 86.424 525.647 86.424C527.055 86.424 528.239 85.88 529.199 84.792C530.223 83.64 530.735 82.264 530.735 80.664V49.944H549.743V84.792ZM586.459 48.984C591.195 48.984 595.291 49.88 598.747 51.672C602.203 53.464 604.827 55.96 606.619 59.16C608.475 62.296 609.403 65.848 609.403 69.816H593.179V67.32C593.179 65.464 592.539 63.896 591.259 62.616C589.979 61.272 588.411 60.6 586.555 60.6C584.699 60.6 583.131 61.272 581.851 62.616C580.571 63.896 579.931 65.464 579.931 67.32V81.624C579.931 83.48 580.571 85.08 581.851 86.424C583.195 87.704 584.795 88.344 586.651 88.344H587.803C589.659 88.344 591.195 87.704 592.411 86.424C593.627 85.144 594.235 83.544 594.235 81.624V79.128H609.403C609.403 85.72 607.355 90.84 603.259 94.488C599.163 98.136 593.595 99.96 586.555 99.96H583.771C579.483 99.96 575.483 98.904 571.771 96.792C568.059 94.68 565.083 91.832 562.843 88.248C560.667 84.6 559.579 80.664 559.579 76.44V72.504C559.579 68.28 560.667 64.376 562.843 60.792C565.019 57.144 567.931 54.264 571.579 52.152C575.291 50.04 579.291 48.984 583.579 48.984H586.459Z" fill="white"/>
<g clip-path="url(#clip0_113_9)">
<path d="M139.716 70.919H141.936L133.061 62.2356V21.9981H142L131.135 14.831V5.93239H133.059V2.17142H119.602V5.93239H121.526V8.49173L108.654 0L75.3073 21.9981H84.2462V62.2356L75.3712 70.919H77.5912V101.044C77.2081 100.941 76.8139 100.885 76.4173 100.877C75.8517 100.877 75.3168 100.988 74.8103 101.163C74.4459 98.7477 70.3515 98.057 69.1303 99.8405C69.1895 99.578 69.2274 99.3083 69.2274 99.0292C69.223 98.0447 68.8276 97.1022 68.1282 96.4089C67.4288 95.7157 66.4826 95.3283 65.4975 95.3321C65.1117 95.3321 64.7544 95.4102 64.4088 95.5213V70.919H66.6288L57.7538 62.2356V21.9981H66.6927L55.8297 14.8333V5.93239H57.7538V2.17142H44.2969V5.93239H46.221V8.4941L33.3463 0L0 21.9981H8.9389V62.2356L0.0638999 70.919H2.28383V114.319H0V123H142V114.319H139.716V70.919ZM88.9819 21.9981H128.328V62.2356H88.9819V21.9981ZM134.983 75.6048V114.319H104.216V86.1095H106.436V81.7666H86.4662V86.1095H88.6861V114.319H82.3245V75.6048H134.983ZM99.3929 100.212C99.3929 99.4029 100.06 98.7501 100.891 98.7501C101.719 98.7501 102.387 99.4029 102.387 100.212C102.387 101.023 101.719 101.678 100.891 101.678C100.696 101.681 100.503 101.645 100.322 101.572C100.141 101.5 99.9762 101.393 99.837 101.256C99.6978 101.12 99.5869 100.958 99.5107 100.778C99.4345 100.599 99.3944 100.407 99.3929 100.212ZM24.0856 100.212C24.0856 99.4029 24.753 98.7501 25.5837 98.7501C26.412 98.7501 27.0794 99.4029 27.0794 100.212C27.0794 101.023 26.412 101.678 25.5837 101.678C25.3888 101.681 25.1954 101.645 25.0145 101.572C24.8336 101.5 24.6689 101.393 24.5297 101.256C24.3905 101.12 24.2796 100.958 24.2034 100.778C24.1271 100.599 24.0871 100.407 24.0856 100.212ZM77.5912 111.395C77.5273 111.381 77.4681 111.355 77.3995 111.355C76.7108 111.355 76.157 112.036 76.157 111.355C76.157 110.674 76.7108 110.125 77.3995 110.125C77.4681 110.125 77.5273 110.151 77.5912 110.163V111.395ZM64.4088 111.374V109.453C65.7058 109.536 66.74 110.582 66.74 111.883C66.74 113.193 65.7105 111.511 64.4088 111.374ZM76.0623 103.036C76.6492 103.036 77.1652 103.266 77.5912 103.601V105.437C77.1675 105.099 76.6421 104.723 76.0623 104.723C74.6825 104.723 73.5607 106.878 73.5607 105.51C73.5607 104.141 74.6825 103.036 76.0623 103.036ZM72.0532 108.451C72.9856 108.451 73.7382 109.193 73.7382 110.118C73.7382 111.041 72.9856 109.669 72.0532 109.669C71.1207 109.669 70.3681 111.041 70.3681 110.118C70.3681 109.193 71.1231 108.451 72.0532 108.451ZM65.8312 99.824C66.0519 99.823 66.2706 99.8655 66.4748 99.9491C66.679 100.033 66.8648 100.156 67.0215 100.311C67.1782 100.466 67.3027 100.651 67.388 100.854C67.4733 101.058 67.5177 101.276 67.5186 101.496C67.5186 102.419 66.7637 101.044 65.8312 101.044C65.2301 101.044 64.7047 101.612 64.4065 101.768V100.657C64.5515 100.406 64.7591 100.198 65.0088 100.052C65.2585 99.9062 65.5419 99.8276 65.8312 99.824ZM13.6722 21.9981H53.0181V62.2356H13.6722V21.9981ZM7.01717 75.6048H59.6755V114.319H28.9088V86.1095H31.1288V81.7666H11.1588V86.1095H13.3788V114.319H7.01717V75.6048Z" fill="white"/>
<path d="M132.912 81.7146H110.135V104.28H132.912V81.7146ZM120.378 102.026H112.41V94.1234H120.378V102.026ZM120.378 91.8645H112.41V83.9641H120.378V91.8645ZM130.631 102.026H122.66V94.1234H130.631V102.026ZM130.631 91.8645H122.66V83.9641H130.631V91.8645Z" fill="white"/>
<path d="M97.2653 53.1644H120.042V30.5986H97.2653V53.1644ZM109.79 32.8528H117.761V40.7509H109.79V32.8528ZM109.79 43.0122H117.761V50.9126H109.79V43.0122ZM99.542 32.8528H107.511V40.7509H99.542V32.8528ZM99.542 43.0122H107.511V50.9126H99.542V43.0122Z" fill="white"/>
<path d="M21.9579 53.1644H44.7347V30.5986H21.9579V53.1644ZM34.48 32.8528H42.4509V40.7509H34.48V32.8528ZM34.48 43.0122H42.4509V50.9126H34.48V43.0122ZM24.2323 32.8528H32.2009V40.7509H24.2323V32.8528ZM24.2323 43.0122H32.2009V50.9126H24.2323V43.0122Z" fill="white"/>
<path d="M57.6047 81.7146H34.8279V104.28H57.6047V81.7146ZM45.0732 102.026H37.1046V94.1234H45.0732V102.026ZM45.0732 91.8645H37.1046V83.9641H45.0732V91.8645ZM55.3232 102.026H47.3523V94.1234H55.3232V102.026ZM55.3232 91.8645H47.3523V83.9641H55.3232V91.8645Z" fill="white"/>
</g>
<defs>
<clipPath id="clip0_113_9">
<rect width="142" height="123" fill="white"/>
</clipPath>
</defs>
</svg>
