<?xml version="1.0" encoding="UTF-8" standalone="no"?>
<!DOCTYPE svg PUBLIC "-//W3C//DTD SVG 1.1//EN" "http://www.w3.org/Graphics/SVG/1.1/DTD/svg11.dtd">
<svg width="100%" height="100%" viewBox="0 0 5264 1101" version="1.1" xmlns="http://www.w3.org/2000/svg" xmlns:xlink="http://www.w3.org/1999/xlink" xml:space="preserve" xmlns:serif="http://www.serif.com/" style="fill-rule:evenodd;clip-rule:evenodd;stroke-linejoin:round;stroke-miterlimit:2;">
    <g id="Terceiro" transform="matrix(1,0,0,1,4183.83,20.8789)">
        <rect x="0" y="0" width="1080" height="1080" style="fill:none;"/>
    </g>
    <g id="Primeiro" transform="matrix(1,0,0,1,2843.89,20.8789)">
        <rect x="0" y="0" width="1080" height="1080" style="fill:none;"/>
    </g>
    <g id="Segundo" transform="matrix(1,0,0,1,1237.01,6.35995)">
        <rect x="0" y="0" width="1080" height="1080" style="fill:none;"/>
    </g>
    <rect id="Segundo1" serif:id="Segundo" x="0" y="0" width="1080" height="1080" style="fill:none;"/>
    <g id="Segundo2" serif:id="Segundo">
        <g id="whatsapp-logo-variant.svg" transform="matrix(28.6583,0,0,28.6583,548.861,531.139)">
            <g transform="matrix(1,0,0,1,-15.3335,-15.3335)">
                <g>
                    <path d="M30.667,14.939C30.667,23.189 23.927,29.877 15.611,29.877C12.972,29.877 10.493,29.202 8.335,28.02L0,30.667L2.717,22.65C1.347,20.4 0.558,17.758 0.558,14.938C0.559,6.688 7.297,0 15.613,0C23.928,0.002 30.667,6.689 30.667,14.939ZM15.61,2.382C8.631,2.382 2.954,8.016 2.954,14.942C2.954,17.69 3.85,20.234 5.365,22.304L3.785,26.967L8.647,25.422C10.647,26.734 13.04,27.498 15.61,27.498C22.589,27.498 28.268,21.865 28.268,14.939C28.27,8.016 22.59,2.382 15.61,2.382ZM23.214,18.38C23.12,18.229 22.874,18.137 22.506,17.953C22.139,17.769 20.322,16.884 19.985,16.764C19.645,16.641 19.399,16.579 19.153,16.946C18.91,17.313 18.202,18.137 17.985,18.383C17.77,18.628 17.555,18.659 17.186,18.478C16.817,18.292 15.627,17.908 14.217,16.661C13.12,15.689 12.379,14.492 12.165,14.125C11.948,13.759 12.143,13.561 12.326,13.379C12.491,13.214 12.695,12.951 12.88,12.736C13.065,12.523 13.126,12.372 13.249,12.127C13.37,11.882 13.309,11.669 13.218,11.484C13.126,11.3 12.389,9.5 12.08,8.767C11.773,8.035 11.466,8.156 11.25,8.156C11.035,8.156 10.789,8.126 10.543,8.126C10.297,8.126 9.897,8.215 9.56,8.582C9.223,8.949 8.269,9.834 8.269,11.636C8.269,13.44 9.59,15.179 9.775,15.423C9.961,15.666 12.329,19.485 16.08,20.951C19.833,22.416 19.833,21.927 20.509,21.865C21.187,21.803 22.693,20.98 22.999,20.126C23.307,19.268 23.307,18.533 23.214,18.38Z" style="fill:rgb(255,255,0);fill-rule:nonzero;"/>
                </g>
            </g>
        </g>
    </g>
</svg>
